<svg xmlns="http://www.w3.org/2000/svg" class="inline-block fill-current" viewBox="0 0 144 32">
  <defs>
    <clipPath id="b">
      <path fill="#FCE400" d="M0 0h31.5v31.5H0z"/>
    </clipPath>
    <clipPath id="a">
      <path d="M0 0h144v32H0z"/>
    </clipPath>
  </defs>
  <g clip-path="url(#a)">
    <path fill="#FCE400" d="M0 .2h31.5v31.5H0z"/>
    <g clip-path="url(#b)" transform="translate(0 .2)">
      <path fill="#dd171b" fill-rule="evenodd" d="m31.5 6.05-7.56 1.51a14.54 14.54 0 0 1-7.9-1.02 15.04 15.04 0 0 0-5-1.82 12.54 12.54 0 0 0-3.54-.01l-5.05.9c-.8.16-1.64.3-2.45.43V.32a7.1 7.1 0 0 1 3.89-.1 9.93 9.93 0 0 1 2.08.94 17.6 17.6 0 0 0 4.3 1.96 13.92 13.92 0 0 0 6.6-.03l4.72-.86 4.94-.89L31.5.32ZM6.6 24.23a14.6 14.6 0 0 1 9.56 1.01 12.18 12.18 0 0 0 8.3 1.5l7.05-1.27v5.7a8.25 8.25 0 0 1-3.01.26 6.4 6.4 0 0 1-1.6-.45l-3.65-1.92a12.22 12.22 0 0 0-7.1-.83L1.04 31.01 0 31.18v-5.7l1.26-.27 3.31-.6c.67-.13 1.37-.25 2.03-.39ZM0 15.08v-4.4l13.02-2.37a15.5 15.5 0 0 1 9.11 1.64 12.54 12.54 0 0 0 8.48.92l.9-.19v4.4l-2.88-1.64a12.29 12.29 0 0 0-6.83-1.02l-8 1.46-2.88.53-7.3 1.34A5.15 5.15 0 0 1 0 15.08Zm31.5 1.5v4.33l-12.9 2.37a15.5 15.5 0 0 1-9.11-1.64 12.53 12.53 0 0 0-8.47-.92L0 20.9v-4.33l3 1.59a12.3 12.3 0 0 0 6.83 1.01l8.01-1.46 2.88-.52L28 15.84a5.14 5.14 0 0 1 3.5.74Z"/>
    </g>
    <path fill="#161615" fill-rule="evenodd" d="M38.2 28.8v-8.54h1.4c2.89 0 4.47 1.52 4.47 4.28 0 2.83-1.52 4.27-4.5 4.27Zm10.4-11.4v14.3h9.47v-2.9h-6.28v-3.25h6.22v-2.9h-6.22v-2.37h6.28V17.4Zm21.75 0-5.2 14.3h3.38l1.54-4.35h4.37l1.52 4.35h3.45L74.1 17.4Zm1.89 2.96L70.9 24.6h2.68Zm42.34 4.03h-3.2v4.5a4.2 4.2 0 0 1-1.37.2 4.25 4.25 0 0 1-4.24-4.5 4.44 4.44 0 0 1 4.74-4.65 7.48 7.48 0 0 1 4.07 1.24v-3.26a11.67 11.67 0 0 0-4.35-.86c-4.63 0-7.84 3.11-7.84 7.57 0 4.4 3.15 7.37 7.84 7.37a12.98 12.98 0 0 0 4.35-.75Zm16.13.13a7.42 7.42 0 1 0-7.4 7.44 7.12 7.12 0 0 0 7.4-7.44Zm-7.46-4.46c-2.4 0-4 1.83-4 4.5s1.65 4.5 4.07 4.5c2.4 0 3.98-1.8 3.98-4.5s-1.62-4.5-4.04-4.5Zm8.7-2.65v14.3h3.25v-9.12l5.76 9.11h3.02V17.4h-3.25v8.9l-5.54-8.9ZM46.91 7.33h-3.2v4.5a4.33 4.33 0 0 1-5.6-4.3 4.44 4.44 0 0 1 4.73-4.66 7.49 7.49 0 0 1 4.07 1.25V.86A11.67 11.67 0 0 0 42.57 0c-4.63 0-7.84 3.1-7.84 7.57 0 4.39 3.15 7.37 7.84 7.37a12.99 12.99 0 0 0 4.35-.75Zm16.12.13a7.42 7.42 0 1 0-7.4 7.43 7.12 7.12 0 0 0 7.4-7.43ZM55.58 3c-2.4 0-4 1.82-4 4.5s1.65 4.5 4.07 4.5c2.4 0 3.98-1.8 3.98-4.5S58.01 3 55.58 3ZM64.11.34v14.3h5.91c3.15 0 5-1.57 5-4.25a3.72 3.72 0 0 0-2.98-3.72 3.13 3.13 0 0 0 1.95-2.94C74 1.46 72.46.34 69.38.34Zm4.75 5.34c1.4 0 1.95-.39 1.95-1.35 0-.92-.53-1.26-2.05-1.26h-1.4v2.61Zm.43 6.04c1.59 0 2.27-.49 2.27-1.65 0-1.2-.7-1.67-2.4-1.67h-1.8v3.32ZM78.88.34h-3.2v14.3h3.2Zm1.39 0v14.3h9.47v-2.9h-6.28V8.5h6.22V5.6h-6.22V3.22h6.28V.34Zm50.46 7.12a7.42 7.42 0 1 0-7.39 7.43 7.12 7.12 0 0 0 7.4-7.43ZM123.28 3c-2.4 0-4.01 1.82-4.01 4.5s1.65 4.5 4.07 4.5c2.4 0 3.99-1.8 3.99-4.5S125.7 3 123.28 3ZM97.92 24.6l-1.35-4.23-1.33 4.23Zm-14.67 7.1v-5.87h.4c2.06 0 2.28.21 3.65 3.75a7.16 7.16 0 0 0 .3.73l.28.66a6.4 6.4 0 0 0 .34.73h4.64l1.54-4.35h4.37l1.53 4.35h3.45l-5.32-14.3h-3.75L90.46 29c-.3-.63-.64-1.37-1.04-2.3a3.04 3.04 0 0 0-1.9-2 3.42 3.42 0 0 0 2.6-3.44c0-2.57-1.69-3.85-5.1-3.85h-5.05V31.7Zm0-8.57h1.41c1.37 0 2.06-.5 2.06-1.52s-.62-1.48-2.01-1.48h-1.46Zm11.15-8.5V8.77h.41c2.06 0 2.27.22 3.64 3.75a6.98 6.98 0 0 0 .3.73l.28.67a6.37 6.37 0 0 0 .34.73h6.44l.01-9.17 5.75 9.17h3.02V.34h-3.26l.02 8.77L105.8.34h-3.26v13.3a29.76 29.76 0 0 1-1.98-4 3.04 3.04 0 0 0-1.9-2.01 3.42 3.42 0 0 0 2.61-3.43c0-2.57-1.7-3.85-5.1-3.85h-5.05v14.29Zm0-8.57h1.42c1.37 0 2.05-.49 2.05-1.52s-.62-1.47-2.01-1.47H94.4ZM34.97 17.41V31.7h4.78c4.84 0 7.7-2.66 7.7-7.16 0-4.48-2.92-7.13-7.87-7.13Z"/>
  </g>
</svg>
